<svg xmlns="http://www.w3.org/2000/svg" xmlns:xlink="http://www.w3.org/1999/xlink" width="500" zoomAndPan="magnify" viewBox="0 0 375 374.999991" height="500" preserveAspectRatio="xMidYMid meet" version="1.0"><defs><clipPath id="ef69b6e8bb"><path d="M 0 30.234375 L 375 30.234375 L 375 267 L 0 267 Z M 0 30.234375 " clip-rule="nonzero"/></clipPath><clipPath id="9fc5896097"><path d="M 116 304 L 259 304 L 259 344.484375 L 116 344.484375 Z M 116 304 " clip-rule="nonzero"/></clipPath></defs><g clip-path="url(#ef69b6e8bb)"><path fill="#feca64" d="M 370.707031 266.636719 L 4.292969 266.636719 C 1.921875 266.636719 0 264.714844 0 262.34375 L 0 34.621094 C 0 32.25 1.921875 30.328125 4.292969 30.328125 L 370.707031 30.328125 C 373.078125 30.328125 375 32.25 375 34.621094 L 375 262.34375 C 375 264.714844 373.078125 266.636719 370.707031 266.636719 Z M 8.585938 258.050781 L 366.414062 258.050781 L 366.414062 38.914062 L 8.585938 38.914062 Z M 8.585938 258.050781 " fill-opacity="1" fill-rule="nonzero"/></g><path fill="#feca64" d="M 345.996094 241.925781 L 29.003906 241.925781 C 26.632812 241.925781 24.710938 240.003906 24.710938 237.632812 L 24.710938 59.332031 C 24.710938 56.960938 26.632812 55.039062 29.003906 55.039062 L 345.996094 55.039062 C 348.367188 55.039062 350.289062 56.960938 350.289062 59.332031 L 350.289062 237.632812 C 350.289062 240.003906 348.367188 241.925781 345.996094 241.925781 Z M 33.300781 233.339844 L 341.703125 233.339844 L 341.703125 63.625 L 33.300781 63.625 Z M 33.300781 233.339844 " fill-opacity="1" fill-rule="nonzero"/><g clip-path="url(#9fc5896097)"><path fill="#feca64" d="M 254.652344 344.742188 L 120.347656 344.742188 C 119.039062 344.742188 117.800781 344.144531 116.984375 343.121094 C 116.171875 342.09375 115.871094 340.753906 116.164062 339.476562 L 123.464844 308.089844 C 123.917969 306.144531 125.652344 304.769531 127.648438 304.769531 L 247.085938 304.769531 C 249.070312 304.769531 250.796875 306.128906 251.261719 308.058594 L 258.824219 339.441406 C 259.132812 340.722656 258.839844 342.070312 258.023438 343.105469 C 257.210938 344.140625 255.96875 344.742188 254.652344 344.742188 Z M 125.757812 336.15625 L 249.199219 336.15625 L 243.703125 313.359375 L 131.058594 313.359375 Z M 125.757812 336.15625 " fill-opacity="1" fill-rule="nonzero"/></g><path fill="#feca64" d="M 127.644531 313.355469 C 126.707031 313.355469 125.761719 313.050781 124.972656 312.421875 C 123.117188 310.941406 122.8125 308.242188 124.289062 306.386719 L 161.515625 259.671875 C 162.992188 257.820312 165.695312 257.511719 167.550781 258.992188 C 169.402344 260.46875 169.707031 263.171875 168.230469 265.027344 L 131.007812 311.738281 C 130.160156 312.804688 128.90625 313.355469 127.644531 313.355469 Z M 127.644531 313.355469 " fill-opacity="1" fill-rule="nonzero"/><path fill="#feca64" d="M 247.089844 313.355469 C 245.832031 313.355469 244.585938 312.808594 243.738281 311.75 L 206.246094 265.035156 C 204.761719 263.1875 205.058594 260.484375 206.90625 259 C 208.757812 257.515625 211.460938 257.8125 212.945312 259.660156 L 250.4375 306.375 C 251.921875 308.226562 251.625 310.925781 249.773438 312.414062 C 248.980469 313.046875 248.03125 313.355469 247.089844 313.355469 Z M 247.089844 313.355469 " fill-opacity="1" fill-rule="nonzero"/><path fill="#feca64" d="M 345.996094 104.871094 L 29.003906 104.871094 C 26.632812 104.871094 24.710938 102.949219 24.710938 100.578125 C 24.710938 98.207031 26.632812 96.28125 29.003906 96.28125 L 345.996094 96.28125 C 348.367188 96.28125 350.289062 98.207031 350.289062 100.578125 C 350.289062 102.949219 348.367188 104.871094 345.996094 104.871094 Z M 345.996094 104.871094 " fill-opacity="1" fill-rule="nonzero"/><path fill="#feca64" d="M 46.898438 73.675781 L 62.050781 73.675781 L 62.050781 88.824219 L 46.898438 88.824219 Z M 46.898438 73.675781 " fill-opacity="1" fill-rule="nonzero"/><path fill="#feca64" d="M 76.15625 73.675781 L 91.308594 73.675781 L 91.308594 88.824219 L 76.15625 88.824219 Z M 76.15625 73.675781 " fill-opacity="1" fill-rule="nonzero"/><path fill="#feca64" d="M 105.414062 73.675781 L 120.5625 73.675781 L 120.5625 88.824219 L 105.414062 88.824219 Z M 105.414062 73.675781 " fill-opacity="1" fill-rule="nonzero"/><path fill="#feca64" d="M 209.59375 130.082031 L 53.371094 130.082031 C 51 130.082031 49.078125 128.160156 49.078125 125.789062 C 49.078125 123.417969 51 121.496094 53.371094 121.496094 L 209.59375 121.496094 C 211.964844 121.496094 213.890625 123.417969 213.890625 125.789062 C 213.890625 128.160156 211.964844 130.082031 209.59375 130.082031 Z M 209.59375 130.082031 " fill-opacity="1" fill-rule="nonzero"/><path fill="#feca64" d="M 209.59375 150.007812 L 53.371094 150.007812 C 51 150.007812 49.078125 148.085938 49.078125 145.714844 C 49.078125 143.34375 51 141.417969 53.371094 141.417969 L 209.59375 141.417969 C 211.964844 141.417969 213.890625 143.34375 213.890625 145.714844 C 213.890625 148.085938 211.964844 150.007812 209.59375 150.007812 Z M 209.59375 150.007812 " fill-opacity="1" fill-rule="nonzero"/><path fill="#feca64" d="M 175.347656 169.929688 L 53.371094 169.929688 C 51 169.929688 49.078125 168.007812 49.078125 165.636719 C 49.078125 163.265625 51 161.34375 53.371094 161.34375 L 175.347656 161.34375 C 177.71875 161.34375 179.644531 163.265625 179.644531 165.636719 C 179.644531 168.007812 177.71875 169.929688 175.347656 169.929688 Z M 175.347656 169.929688 " fill-opacity="1" fill-rule="nonzero"/><path fill="#feca64" d="M 209.59375 222.285156 L 54.472656 222.285156 C 52.101562 222.285156 50.179688 220.363281 50.179688 217.992188 L 50.179688 186.800781 C 50.179688 184.429688 52.101562 182.507812 54.472656 182.507812 L 209.59375 182.507812 C 211.964844 182.507812 213.890625 184.429688 213.890625 186.800781 L 213.890625 217.992188 C 213.890625 220.363281 211.964844 222.285156 209.59375 222.285156 Z M 58.769531 213.699219 L 205.300781 213.699219 L 205.300781 191.09375 L 58.769531 191.09375 Z M 58.769531 213.699219 " fill-opacity="1" fill-rule="nonzero"/><path fill="#feca64" d="M 257.601562 179.53125 C 256.425781 179.53125 255.253906 179.050781 254.40625 178.105469 L 235.304688 156.859375 C 233.839844 155.226562 233.839844 152.75 235.304688 151.121094 L 254.40625 129.875 C 255.988281 128.109375 258.703125 127.964844 260.46875 129.550781 C 262.230469 131.136719 262.375 133.851562 260.792969 135.617188 L 244.273438 153.988281 L 260.792969 172.367188 C 262.378906 174.128906 262.234375 176.84375 260.472656 178.429688 C 259.648438 179.167969 258.625 179.53125 257.601562 179.53125 Z M 257.601562 179.53125 " fill-opacity="1" fill-rule="nonzero"/><path fill="#feca64" d="M 301.078125 179.53125 C 300.054688 179.53125 299.03125 179.167969 298.210938 178.429688 C 296.445312 176.84375 296.300781 174.128906 297.886719 172.367188 L 314.40625 153.988281 L 297.890625 135.617188 C 296.304688 133.851562 296.449219 131.136719 298.210938 129.550781 C 299.972656 127.96875 302.691406 128.109375 304.277344 129.875 L 323.375 151.121094 C 324.839844 152.753906 324.839844 155.230469 323.375 156.859375 L 304.273438 178.109375 C 303.425781 179.050781 302.253906 179.53125 301.078125 179.53125 Z M 301.078125 179.53125 " fill-opacity="1" fill-rule="nonzero"/><path fill="#feca64" d="M 268.488281 186.488281 C 267.976562 186.488281 267.453125 186.398438 266.945312 186.203125 C 264.734375 185.351562 263.628906 182.867188 264.480469 180.652344 L 286.183594 124.246094 C 287.035156 122.03125 289.519531 120.925781 291.734375 121.78125 C 293.945312 122.632812 295.050781 125.117188 294.199219 127.328125 L 272.496094 183.738281 C 271.839844 185.441406 270.210938 186.488281 268.488281 186.488281 Z M 268.488281 186.488281 " fill-opacity="1" fill-rule="nonzero"/></svg>