<svg xmlns="http://www.w3.org/2000/svg" xmlns:xlink="http://www.w3.org/1999/xlink" width="500" zoomAndPan="magnify" viewBox="0 0 375 374.999991" height="500" preserveAspectRatio="xMidYMid meet" version="1.0"><defs><clipPath id="cad7d5c044"><path d="M 15 0 L 360 0 L 360 375 L 15 375 Z M 15 0 " clip-rule="nonzero"/></clipPath></defs><g clip-path="url(#cad7d5c044)"><path fill="#feca64" d="M 56.136719 124.007812 C 67.484375 124.007812 76.71875 114.773438 76.71875 103.425781 C 76.71875 92.074219 67.484375 82.839844 56.136719 82.839844 C 44.785156 82.839844 35.550781 92.074219 35.550781 103.425781 C 35.550781 114.773438 44.785156 124.007812 56.136719 124.007812 Z M 56.136719 94.933594 C 60.816406 94.933594 64.628906 98.742188 64.628906 103.425781 C 64.628906 108.105469 60.816406 111.914062 56.136719 111.914062 C 51.453125 111.914062 47.644531 108.105469 47.644531 103.425781 C 47.644531 98.742188 51.453125 94.933594 56.136719 94.933594 Z M 56.136719 197.511719 C 67.484375 197.511719 76.71875 188.277344 76.71875 176.929688 C 76.71875 165.578125 67.484375 156.34375 56.136719 156.34375 C 44.785156 156.34375 35.550781 165.578125 35.550781 176.929688 C 35.550781 188.277344 44.785156 197.511719 56.136719 197.511719 Z M 56.136719 168.4375 C 60.816406 168.4375 64.628906 172.246094 64.628906 176.929688 C 64.628906 181.609375 60.816406 185.417969 56.136719 185.417969 C 51.453125 185.417969 47.644531 181.609375 47.644531 176.929688 C 47.644531 172.246094 51.453125 168.4375 56.136719 168.4375 Z M 56.136719 229.847656 C 44.785156 229.847656 35.550781 239.082031 35.550781 250.433594 C 35.550781 261.78125 44.785156 271.015625 56.136719 271.015625 C 67.484375 271.015625 76.71875 261.78125 76.71875 250.433594 C 76.71875 239.082031 67.484375 229.847656 56.136719 229.847656 Z M 56.136719 258.925781 C 51.453125 258.925781 47.644531 255.113281 47.644531 250.433594 C 47.644531 245.75 51.453125 241.941406 56.136719 241.941406 C 60.816406 241.941406 64.628906 245.75 64.628906 250.433594 C 64.628906 255.113281 60.816406 258.925781 56.136719 258.925781 Z M 356.175781 240.660156 L 341.199219 234.894531 C 339.019531 226.902344 335.839844 219.234375 331.722656 212.027344 L 338.238281 197.355469 C 339.253906 195.070312 338.757812 192.394531 336.988281 190.625 L 316.324219 169.960938 C 314.558594 168.195312 311.882812 167.695312 309.597656 168.710938 L 294.917969 175.230469 C 287.710938 171.113281 280.046875 167.933594 272.054688 165.753906 L 266.289062 150.773438 C 265.394531 148.441406 263.148438 146.898438 260.648438 146.898438 L 252.082031 146.898438 L 252.082031 41.921875 C 252.082031 29.328125 239.234375 18.582031 214.925781 10.84375 C 193.101562 3.898438 164.203125 0.0742188 133.554688 0.0742188 C 102.90625 0.0742188 74.007812 3.898438 52.183594 10.84375 C 27.875 18.582031 15.027344 29.328125 15.027344 41.921875 L 15.027344 260.191406 C 15.027344 272.785156 27.875 283.53125 52.183594 291.265625 C 74.007812 298.210938 102.90625 302.039062 133.554688 302.039062 C 141.128906 302.039062 148.664062 301.789062 156.039062 301.320312 C 157.335938 304.207031 158.773438 307.039062 160.351562 309.796875 L 153.835938 324.472656 C 152.820312 326.757812 153.316406 329.429688 155.085938 331.199219 L 175.75 351.863281 C 177.519531 353.632812 180.195312 354.128906 182.480469 353.113281 L 197.160156 346.59375 C 204.363281 350.714844 212.027344 353.890625 220.019531 356.074219 L 225.785156 371.050781 C 226.679688 373.386719 228.925781 374.925781 231.425781 374.925781 L 260.648438 374.925781 C 263.148438 374.925781 265.390625 373.386719 266.289062 371.050781 L 272.054688 356.078125 C 280.046875 353.898438 287.71875 350.71875 294.921875 346.597656 L 309.59375 353.113281 C 311.882812 354.132812 314.554688 353.632812 316.324219 351.863281 L 336.988281 331.199219 C 338.757812 329.429688 339.253906 326.757812 338.238281 324.472656 L 331.71875 309.792969 C 335.839844 302.585938 339.015625 294.921875 341.195312 286.933594 L 356.175781 281.167969 C 358.507812 280.269531 360.050781 278.027344 360.050781 275.523438 L 360.050781 246.300781 C 360.050781 243.800781 358.507812 241.558594 356.175781 240.660156 Z M 55.851562 22.367188 C 76.519531 15.789062 104.113281 12.164062 133.554688 12.164062 C 162.996094 12.164062 190.589844 15.789062 211.257812 22.367188 C 232.441406 29.109375 239.992188 36.890625 239.992188 41.921875 C 239.992188 46.953125 232.441406 54.734375 211.257812 61.476562 C 190.589844 68.054688 162.996094 71.675781 133.554688 71.675781 C 104.113281 71.675781 76.519531 68.054688 55.851562 61.476562 C 34.667969 54.734375 27.117188 46.953125 27.117188 41.921875 C 27.117188 36.890625 34.667969 29.109375 55.851562 22.367188 Z M 27.117188 61.3125 C 33.238281 65.710938 41.628906 69.636719 52.183594 72.996094 C 74.007812 79.941406 102.90625 83.765625 133.554688 83.765625 C 164.203125 83.765625 193.101562 79.941406 214.925781 72.996094 C 225.480469 69.636719 233.871094 65.710938 239.992188 61.3125 L 239.992188 114.675781 C 239.992188 119.710938 232.441406 127.488281 211.257812 134.230469 C 190.589844 140.808594 162.992188 144.433594 133.554688 144.433594 C 104.113281 144.433594 76.519531 140.808594 55.851562 134.230469 C 34.667969 127.488281 27.117188 119.710938 27.117188 114.675781 Z M 27.117188 134.070312 C 33.238281 138.46875 41.628906 142.394531 52.183594 145.753906 C 74.007812 152.699219 102.90625 156.523438 133.554688 156.523438 C 164.203125 156.523438 193.101562 152.699219 214.925781 145.753906 C 225.480469 142.394531 233.871094 138.46875 239.992188 134.070312 L 239.992188 146.898438 L 231.425781 146.898438 C 228.925781 146.898438 226.683594 148.441406 225.785156 150.773438 L 220.019531 165.753906 C 212.027344 167.933594 204.363281 171.113281 197.160156 175.230469 L 182.480469 168.710938 C 180.191406 167.695312 177.519531 168.195312 175.75 169.960938 L 155.085938 190.625 C 153.316406 192.394531 152.820312 195.070312 153.835938 197.355469 L 160.355469 212.03125 C 159.550781 213.4375 158.792969 214.863281 158.0625 216.304688 C 150.058594 216.878906 141.84375 217.191406 133.554688 217.191406 C 104.117188 217.191406 76.519531 213.566406 55.851562 206.988281 C 34.667969 200.246094 27.121094 192.464844 27.121094 187.433594 L 27.121094 134.070312 Z M 133.554688 289.945312 C 104.113281 289.945312 76.519531 286.324219 55.851562 279.746094 C 34.667969 273.003906 27.117188 265.222656 27.117188 260.191406 L 27.117188 206.824219 C 33.238281 211.222656 41.628906 215.152344 52.183594 218.511719 C 74.007812 225.457031 102.90625 229.28125 133.554688 229.28125 C 140.019531 229.28125 146.445312 229.09375 152.773438 228.753906 C 152.074219 230.777344 151.441406 232.824219 150.875 234.894531 L 135.898438 240.660156 C 133.5625 241.558594 132.023438 243.800781 132.023438 246.300781 L 132.023438 275.523438 C 132.023438 278.027344 133.5625 280.269531 135.898438 281.167969 L 150.871094 286.933594 C 151.105469 287.78125 151.355469 288.625 151.609375 289.46875 C 145.664062 289.777344 139.621094 289.945312 133.554688 289.945312 Z M 347.957031 271.375 L 333.941406 276.769531 C 332.078125 277.484375 330.691406 279.074219 330.230469 281.011719 C 328.109375 289.917969 324.59375 298.402344 319.777344 306.222656 C 318.730469 307.917969 318.589844 310.023438 319.398438 311.847656 L 325.5 325.585938 L 310.707031 340.378906 L 296.976562 334.277344 C 295.152344 333.46875 293.050781 333.609375 291.351562 334.65625 C 283.53125 339.472656 275.046875 342.988281 266.132812 345.109375 C 264.195312 345.570312 262.605469 346.957031 261.890625 348.820312 L 256.496094 362.835938 L 235.578125 362.835938 L 230.179688 348.816406 C 229.464844 346.957031 227.878906 345.566406 225.9375 345.105469 C 217.03125 342.988281 208.550781 339.472656 200.726562 334.65625 C 199.027344 333.609375 196.925781 333.46875 195.105469 334.277344 L 181.363281 340.378906 L 166.570312 325.585938 L 172.667969 311.851562 C 173.480469 310.03125 173.339844 307.925781 172.292969 306.226562 C 167.476562 298.410156 163.960938 289.925781 161.839844 281.011719 C 161.375 279.070312 159.988281 277.484375 158.128906 276.769531 L 144.117188 271.375 L 144.117188 250.453125 L 158.132812 245.058594 C 159.992188 244.34375 161.378906 242.753906 161.839844 240.816406 C 163.960938 231.90625 167.480469 223.421875 172.292969 215.601562 C 173.339844 213.90625 173.480469 211.800781 172.671875 209.980469 L 166.570312 196.242188 L 181.363281 181.449219 L 195.101562 187.550781 C 196.925781 188.359375 199.027344 188.21875 200.726562 187.171875 C 208.546875 182.355469 217.03125 178.839844 225.9375 176.71875 C 227.875 176.257812 229.464844 174.871094 230.179688 173.011719 L 235.574219 158.992188 L 256.496094 158.992188 L 261.890625 173.011719 C 262.605469 174.871094 264.195312 176.257812 266.132812 176.71875 C 275.042969 178.839844 283.523438 182.355469 291.34375 187.171875 C 293.042969 188.21875 295.148438 188.359375 296.96875 187.550781 L 310.707031 181.449219 L 325.5 196.242188 L 319.402344 209.972656 C 318.59375 211.796875 318.734375 213.902344 319.78125 215.597656 C 324.597656 223.417969 328.113281 231.902344 330.234375 240.816406 C 330.695312 242.753906 332.082031 244.34375 333.945312 245.058594 L 347.957031 250.453125 Z M 246.035156 193.765625 C 209.011719 193.765625 178.886719 223.886719 178.886719 260.914062 C 178.886719 297.941406 209.011719 328.0625 246.035156 328.0625 C 283.0625 328.0625 313.1875 297.941406 313.1875 260.914062 C 313.1875 223.886719 283.0625 193.765625 246.035156 193.765625 Z M 246.035156 315.96875 C 215.679688 315.96875 190.980469 291.273438 190.980469 260.914062 C 190.980469 230.554688 215.679688 205.855469 246.035156 205.855469 C 276.394531 205.855469 301.09375 230.554688 301.09375 260.914062 C 301.09375 291.273438 276.394531 315.96875 246.035156 315.96875 Z M 258.886719 285.507812 C 259.75 288.734375 257.835938 292.046875 254.609375 292.914062 C 254.085938 293.054688 253.558594 293.121094 253.042969 293.121094 C 250.371094 293.121094 247.929688 291.339844 247.207031 288.636719 L 233.1875 236.320312 C 232.324219 233.09375 234.238281 229.777344 237.460938 228.914062 C 240.6875 228.050781 244.003906 229.964844 244.867188 233.1875 Z M 270.664062 237.042969 L 293.503906 256.289062 C 294.867188 257.4375 295.65625 259.132812 295.65625 260.914062 C 295.65625 262.695312 294.867188 264.386719 293.503906 265.535156 L 270.664062 284.785156 C 269.527344 285.742188 268.144531 286.207031 266.769531 286.207031 C 265.050781 286.207031 263.339844 285.476562 262.144531 284.058594 C 259.992188 281.503906 260.316406 277.691406 262.871094 275.539062 L 280.226562 260.914062 L 262.871094 246.289062 C 260.316406 244.136719 259.992188 240.324219 262.144531 237.769531 C 264.296875 235.214844 268.113281 234.890625 270.664062 237.042969 Z M 229.203125 246.289062 L 211.847656 260.914062 L 229.203125 275.539062 C 231.753906 277.691406 232.082031 281.503906 229.929688 284.058594 C 228.730469 285.476562 227.023438 286.207031 225.300781 286.207031 C 223.925781 286.207031 222.542969 285.742188 221.410156 284.785156 L 198.566406 265.535156 C 197.203125 264.386719 196.417969 262.695312 196.417969 260.914062 C 196.417969 259.132812 197.203125 257.4375 198.566406 256.289062 L 221.410156 237.042969 C 223.960938 234.890625 227.777344 235.214844 229.929688 237.769531 C 232.082031 240.324219 231.753906 244.136719 229.203125 246.289062 Z M 229.203125 246.289062 " fill-opacity="1" fill-rule="nonzero"/></g></svg>