<svg xmlns="http://www.w3.org/2000/svg" xmlns:xlink="http://www.w3.org/1999/xlink" width="500" zoomAndPan="magnify" viewBox="0 0 375 374.999991" height="500" preserveAspectRatio="xMidYMid meet" version="1.0"><path fill="#feca64" d="M 243.675781 208.992188 C 239.429688 208.992188 235.386719 210.269531 231.957031 212.613281 C 228.398438 209.988281 224.148438 208.507812 219.644531 208.507812 C 214.070312 208.507812 208.832031 210.675781 204.894531 214.617188 C 203.0625 216.449219 203.0625 219.417969 204.894531 221.246094 C 206.722656 223.078125 209.695312 223.078125 211.519531 221.246094 C 215.859375 216.910156 223.421875 216.90625 227.765625 221.246094 C 229.933594 223.417969 231.128906 226.300781 231.128906 229.367188 C 231.128906 232.4375 229.933594 235.320312 227.765625 237.488281 C 225.933594 239.320312 225.933594 242.289062 227.765625 244.117188 C 228.679688 245.035156 229.878906 245.492188 231.078125 245.492188 C 232.277344 245.492188 233.476562 245.035156 234.394531 244.117188 C 238.335938 240.175781 240.503906 234.941406 240.503906 229.367188 C 240.503906 226.003906 239.625 222.804688 238.132812 219.894531 C 242.480469 217.574219 248.226562 218.15625 251.800781 221.730469 C 252.714844 222.648438 253.914062 223.105469 255.113281 223.105469 C 256.3125 223.105469 257.511719 222.648438 258.429688 221.730469 C 260.257812 219.902344 260.257812 216.933594 258.429688 215.101562 C 254.488281 211.160156 249.25 208.992188 243.675781 208.992188 Z M 243.675781 208.992188 " fill-opacity="1" fill-rule="nonzero"/><path fill="#feca64" d="M 281.121094 195.488281 C 279.972656 194.285156 278.730469 193.167969 277.417969 192.144531 C 283.234375 187.984375 286.992188 181.179688 286.992188 173.695312 C 286.992188 163.453125 280.152344 154.746094 270.800781 151.914062 C 272.960938 144.539062 272.585938 136.601562 269.640625 129.023438 C 266.199219 120.171875 258.820312 113.019531 249.902344 109.890625 C 242.59375 107.324219 235.121094 107.085938 228.230469 109.046875 C 228.539062 105.386719 227.960938 101.601562 226.449219 97.929688 C 224.121094 92.269531 219.480469 87.855469 213.714844 85.808594 C 206.359375 83.191406 198.609375 84.191406 192.457031 88.53125 C 190.535156 89.886719 188.890625 91.539062 187.5 93.371094 C 186.109375 91.539062 184.464844 89.886719 182.542969 88.53125 C 176.394531 84.191406 168.644531 83.191406 161.285156 85.808594 C 155.519531 87.855469 150.878906 92.269531 148.550781 97.929688 C 147.039062 101.601562 146.460938 105.386719 146.769531 109.046875 C 139.886719 107.082031 132.410156 107.324219 125.097656 109.890625 C 116.179688 113.019531 108.800781 120.171875 105.359375 129.023438 C 102.414062 136.601562 102.039062 144.539062 104.199219 151.914062 C 94.847656 154.746094 88.007812 163.453125 88.007812 173.695312 C 88.007812 181.179688 91.765625 187.984375 97.582031 192.144531 C 96.269531 193.167969 95.027344 194.285156 93.878906 195.488281 C 93.875 195.488281 93.875 195.488281 93.875 195.488281 C 87.703125 201.933594 84.300781 210.398438 84.300781 219.320312 C 84.300781 234.289062 93.84375 247.269531 107.636719 251.957031 C 106.339844 257.699219 106.964844 263.652344 109.515625 269.441406 C 112.179688 275.488281 117.257812 280.421875 123.441406 282.96875 C 130.75 285.984375 138.332031 285.941406 145.1875 282.914062 C 150.421875 287.9375 157.199219 290.609375 164.308594 290.605469 C 167.894531 290.605469 171.570312 289.925781 175.167969 288.523438 C 180.261719 286.539062 184.515625 282.953125 187.5 278.429688 C 190.484375 282.953125 194.738281 286.539062 199.832031 288.523438 C 203.429688 289.925781 207.105469 290.605469 210.691406 290.605469 C 217.800781 290.605469 224.578125 287.9375 229.8125 282.914062 C 236.671875 285.941406 244.257812 285.984375 251.554688 282.972656 C 257.742188 280.421875 262.820312 275.488281 265.484375 269.441406 C 268.035156 263.652344 268.660156 257.699219 267.363281 251.957031 C 281.15625 247.269531 290.699219 234.289062 290.699219 219.320312 C 290.699219 210.398438 287.296875 201.933594 281.125 195.488281 C 281.125 195.488281 281.125 195.488281 281.121094 195.488281 Z M 171.765625 279.789062 C 161.949219 283.613281 154.023438 279.394531 149.882812 274.171875 C 148.960938 273.015625 147.59375 272.402344 146.207031 272.402344 C 145.363281 272.402344 144.515625 272.628906 143.75 273.097656 C 140.15625 275.316406 134.34375 277.324219 127.015625 274.300781 C 123.042969 272.667969 119.792969 269.515625 118.09375 265.660156 C 115.273438 259.253906 116.449219 253.917969 117.929688 250.570312 C 118.515625 249.25 118.460938 247.734375 117.78125 246.460938 C 117.101562 245.191406 115.875 244.300781 114.453125 244.050781 C 102.414062 241.945312 93.675781 231.542969 93.675781 219.320312 C 93.675781 212.824219 96.152344 206.667969 100.644531 201.972656 C 103.207031 199.304688 106.371094 197.195312 109.804688 195.871094 C 111.792969 195.109375 113.015625 193.097656 112.78125 190.984375 C 112.546875 188.867188 110.914062 187.171875 108.808594 186.863281 C 102.1875 185.882812 97.382812 180.34375 97.382812 173.695312 C 97.382812 166.355469 103.359375 160.355469 110.707031 160.324219 C 112.328125 160.316406 113.832031 159.46875 114.679688 158.085938 C 115.527344 156.703125 115.601562 154.980469 114.875 153.53125 C 112.5625 148.933594 110.554688 141.539062 114.097656 132.417969 C 116.558594 126.085938 121.832031 120.972656 128.203125 118.734375 C 136.949219 115.664062 145.957031 117.070312 152.90625 122.570312 C 154.804688 124.078125 157.535156 123.886719 159.203125 122.140625 C 160.875 120.394531 160.945312 117.660156 159.363281 115.832031 C 155.902344 111.824219 155.117188 106.601562 157.21875 101.5 C 158.515625 98.347656 161.207031 95.78125 164.421875 94.644531 C 168.875 93.054688 173.5 93.625 177.136719 96.191406 C 180.691406 98.699219 182.8125 102.789062 182.8125 107.132812 L 182.8125 233.644531 C 178.679688 230.398438 173.542969 228.378906 167.890625 228.378906 C 154.492188 228.378906 143.589844 239.277344 143.589844 252.675781 C 143.589844 255.261719 145.691406 257.363281 148.277344 257.363281 C 150.867188 257.363281 152.964844 255.261719 152.964844 252.675781 C 152.964844 244.445312 159.660156 237.753906 167.890625 237.753906 C 176.117188 237.753906 182.8125 244.445312 182.8125 252.675781 L 182.8125 262.722656 C 182.8125 270.359375 178.371094 277.214844 171.765625 279.789062 Z M 260.546875 244.050781 C 259.125 244.300781 257.898438 245.191406 257.21875 246.460938 C 256.539062 247.734375 256.484375 249.25 257.070312 250.570312 C 258.550781 253.917969 259.726562 259.253906 256.90625 265.660156 C 255.207031 269.515625 251.957031 272.667969 247.980469 274.304688 C 240.664062 277.324219 234.84375 275.316406 231.25 273.097656 C 229.230469 271.855469 226.59375 272.3125 225.117188 274.171875 C 220.976562 279.394531 213.058594 283.613281 203.234375 279.789062 C 196.628906 277.214844 192.1875 270.359375 192.1875 262.722656 L 192.1875 169.039062 C 196.320312 172.289062 201.457031 174.308594 207.109375 174.308594 C 220.507812 174.308594 231.410156 163.40625 231.410156 150.007812 C 231.410156 147.421875 229.308594 145.320312 226.722656 145.320312 C 224.132812 145.320312 222.035156 147.421875 222.035156 150.007812 C 222.035156 158.238281 215.339844 164.933594 207.109375 164.933594 C 198.882812 164.933594 192.1875 158.238281 192.1875 150.007812 L 192.1875 107.132812 C 192.1875 102.789062 194.308594 98.699219 197.863281 96.191406 C 200.140625 94.582031 202.808594 93.761719 205.578125 93.761719 C 207.230469 93.761719 208.917969 94.050781 210.578125 94.644531 C 213.792969 95.78125 216.484375 98.347656 217.78125 101.5 C 219.882812 106.601562 219.097656 111.824219 215.636719 115.832031 C 214.054688 117.660156 214.125 120.394531 215.796875 122.140625 C 217.46875 123.890625 220.199219 124.074219 222.09375 122.570312 C 229.042969 117.0625 238.046875 115.664062 246.796875 118.734375 C 253.167969 120.972656 258.441406 126.085938 260.902344 132.417969 C 264.445312 141.539062 262.4375 148.933594 260.125 153.53125 C 259.398438 154.980469 259.472656 156.703125 260.320312 158.085938 C 261.167969 159.46875 262.671875 160.316406 264.292969 160.324219 C 271.640625 160.355469 277.617188 166.355469 277.617188 173.695312 C 277.617188 180.34375 272.8125 185.882812 266.191406 186.863281 C 264.085938 187.171875 262.453125 188.867188 262.21875 190.984375 C 261.984375 193.097656 263.207031 195.109375 265.195312 195.871094 C 268.628906 197.195312 271.792969 199.304688 274.355469 201.972656 C 278.847656 206.667969 281.324219 212.824219 281.324219 219.320312 C 281.324219 231.542969 272.585938 241.945312 260.546875 244.050781 Z M 260.546875 244.050781 " fill-opacity="1" fill-rule="nonzero"/><path fill="#feca64" d="M 152.605469 187.730469 C 152.605469 190.316406 154.707031 192.417969 157.292969 192.417969 C 159.882812 192.417969 161.980469 190.316406 161.980469 187.730469 C 161.980469 180.386719 158.148438 173.949219 152.398438 170.230469 C 152.421875 170.207031 152.449219 170.191406 152.472656 170.167969 C 160.605469 162.035156 160.605469 148.800781 152.472656 140.667969 C 150.644531 138.835938 147.675781 138.835938 145.847656 140.667969 C 144.015625 142.496094 144.015625 145.464844 145.847656 147.292969 C 150.324219 151.773438 150.324219 159.0625 145.847656 163.539062 C 141.367188 168.015625 134.078125 168.015625 129.601562 163.539062 C 127.769531 161.710938 124.796875 161.710938 122.972656 163.539062 C 121.140625 165.371094 121.140625 168.339844 122.972656 170.167969 C 127.039062 174.234375 132.378906 176.269531 137.722656 176.269531 C 138.527344 176.269531 139.320312 176.132812 140.121094 176.039062 C 140.453125 176.113281 140.765625 176.242188 141.121094 176.242188 C 147.453125 176.242188 152.605469 181.394531 152.605469 187.730469 Z M 152.605469 187.730469 " fill-opacity="1" fill-rule="nonzero"/><path fill="#feca64" d="M 370.3125 192.1875 C 372.902344 192.1875 375 190.089844 375 187.5 C 375 184.910156 372.902344 182.8125 370.3125 182.8125 L 328.125 182.8125 L 328.125 117.1875 L 352.550781 117.1875 C 354.363281 121.324219 358.476562 124.21875 363.28125 124.21875 C 369.753906 124.21875 375 118.972656 375 112.5 C 375 106.027344 369.753906 100.78125 363.28125 100.78125 C 358.476562 100.78125 354.363281 103.675781 352.550781 107.8125 L 328.125 107.8125 L 328.125 70.3125 C 328.125 57.390625 317.609375 46.875 304.6875 46.875 L 267.207031 46.875 L 267.207031 4.6875 C 267.207031 2.097656 265.109375 0 262.519531 0 C 259.933594 0 257.832031 2.097656 257.832031 4.6875 L 257.832031 46.875 L 192.207031 46.875 L 192.207031 4.6875 C 192.207031 2.097656 190.109375 0 187.519531 0 C 184.933594 0 182.832031 2.097656 182.832031 4.6875 L 182.832031 46.875 L 117.207031 46.875 L 117.207031 22.449219 C 121.34375 20.636719 124.238281 16.523438 124.238281 11.71875 C 124.238281 5.246094 118.992188 0 112.519531 0 C 106.046875 0 100.800781 5.246094 100.800781 11.71875 C 100.800781 16.523438 103.699219 20.636719 107.832031 22.449219 L 107.832031 46.875 L 70.3125 46.875 C 57.390625 46.875 46.875 57.390625 46.875 70.3125 L 46.875 107.8125 L 4.6875 107.8125 C 2.097656 107.8125 0 109.910156 0 112.5 C 0 115.089844 2.097656 117.1875 4.6875 117.1875 L 46.875 117.1875 L 46.875 182.8125 L 4.6875 182.8125 C 2.097656 182.8125 0 184.910156 0 187.5 C 0 190.089844 2.097656 192.1875 4.6875 192.1875 L 46.875 192.1875 L 46.875 257.8125 L 22.449219 257.8125 C 20.636719 253.675781 16.523438 250.78125 11.71875 250.78125 C 5.246094 250.78125 0 256.027344 0 262.5 C 0 268.972656 5.246094 274.21875 11.71875 274.21875 C 16.523438 274.21875 20.636719 271.324219 22.449219 267.1875 L 46.875 267.1875 L 46.875 304.6875 C 46.875 317.609375 57.390625 328.125 70.3125 328.125 L 107.8125 328.125 L 107.8125 352.601562 C 103.6875 354.417969 100.800781 358.527344 100.800781 363.320312 C 100.800781 369.792969 106.046875 375.039062 112.519531 375.039062 C 118.992188 375.039062 124.238281 369.792969 124.238281 363.320312 C 124.238281 358.507812 121.335938 354.382812 117.1875 352.578125 L 117.1875 328.125 L 182.8125 328.125 L 182.8125 370.3125 C 182.8125 372.902344 184.910156 375 187.5 375 C 190.089844 375 192.1875 372.902344 192.1875 370.3125 L 192.1875 328.125 L 257.8125 328.125 L 257.8125 370.3125 C 257.8125 372.902344 259.910156 375 262.5 375 C 265.089844 375 267.1875 372.902344 267.1875 370.3125 L 267.1875 328.125 L 304.6875 328.125 C 317.609375 328.125 328.125 317.609375 328.125 304.6875 L 328.125 267.1875 L 370.3125 267.1875 C 372.902344 267.1875 375 265.089844 375 262.5 C 375 259.910156 372.902344 257.8125 370.3125 257.8125 L 328.125 257.8125 L 328.125 192.1875 Z M 318.75 304.6875 C 318.75 312.441406 312.441406 318.75 304.6875 318.75 L 70.3125 318.75 C 62.558594 318.75 56.25 312.441406 56.25 304.6875 L 56.25 70.3125 C 56.25 62.558594 62.558594 56.25 70.3125 56.25 L 304.6875 56.25 C 312.441406 56.25 318.75 62.558594 318.75 70.3125 Z M 318.75 304.6875 " fill-opacity="1" fill-rule="nonzero"/></svg>