<svg xmlns="http://www.w3.org/2000/svg" xmlns:xlink="http://www.w3.org/1999/xlink" width="500" zoomAndPan="magnify" viewBox="0 0 375 374.999991" height="500" preserveAspectRatio="xMidYMid meet" version="1.0"><defs><clipPath id="3f5e2466a4"><path d="M 2 1.054688 L 375 1.054688 L 375 373.804688 L 2 373.804688 Z M 2 1.054688 " clip-rule="nonzero"/></clipPath></defs><g clip-path="url(#3f5e2466a4)"><path fill="#feca64" d="M 372.324219 64.488281 L 356.109375 60.433594 C 355.472656 58.625 354.742188 56.855469 353.921875 55.125 L 362.515625 40.492188 C 362.742188 40.105469 362.902344 39.695312 362.992188 39.257812 C 363.082031 38.820312 363.101562 38.378906 363.046875 37.9375 C 362.988281 37.492188 362.863281 37.070312 362.671875 36.667969 C 362.476562 36.265625 362.222656 35.90625 361.90625 35.585938 L 341.234375 14.917969 C 340.917969 14.601562 340.558594 14.347656 340.15625 14.152344 C 339.753906 13.957031 339.332031 13.832031 338.886719 13.777344 C 338.445312 13.722656 338.003906 13.742188 337.566406 13.832031 C 337.128906 13.921875 336.714844 14.082031 336.332031 14.308594 L 321.496094 22.699219 C 319.765625 21.878906 317.996094 21.148438 316.1875 20.511719 L 311.933594 4.09375 C 311.816406 3.648438 311.632812 3.234375 311.375 2.851562 C 311.121094 2.46875 310.808594 2.140625 310.4375 1.863281 C 310.070312 1.585938 309.667969 1.378906 309.226562 1.242188 C 308.789062 1.101562 308.339844 1.039062 307.878906 1.054688 L 278.695312 1.054688 C 278.234375 1.039062 277.785156 1.101562 277.347656 1.242188 C 276.90625 1.378906 276.503906 1.585938 276.136719 1.863281 C 275.765625 2.140625 275.457031 2.46875 275.199219 2.851562 C 274.941406 3.234375 274.757812 3.648438 274.644531 4.09375 L 270.589844 20.511719 C 268.78125 21.148438 267.011719 21.878906 265.28125 22.699219 L 250.730469 14.105469 C 250.335938 13.859375 249.914062 13.683594 249.460938 13.582031 C 249.007812 13.480469 248.550781 13.457031 248.089844 13.511719 C 247.625 13.566406 247.1875 13.699219 246.773438 13.90625 C 246.355469 14.109375 245.984375 14.378906 245.664062 14.714844 L 228.964844 31.414062 C 225.15625 29.894531 221.265625 28.640625 217.289062 27.644531 C 158.761719 13.214844 111.261719 23.753906 76.039062 58.972656 C 48.3125 86.699219 40.492188 141.457031 39.558594 150.859375 C 23.953125 168.367188 -0.566406 198.078125 3.082031 208.292969 C 6.527344 217.777344 23.671875 223.976562 31.613281 226.125 C 31.007812 239.828125 29.34375 290.976562 39.722656 308.363281 C 50.097656 325.753906 87.875 316.472656 102.667969 311.890625 L 101.613281 369.890625 C 101.59375 371.03125 101.988281 372.003906 102.789062 372.808594 C 103.578125 373.617188 104.539062 374.023438 105.667969 374.027344 L 233.503906 374.027344 C 233.824219 374.027344 234.136719 373.988281 234.449219 373.914062 C 234.761719 373.839844 235.058594 373.730469 235.34375 373.582031 C 235.628906 373.4375 235.890625 373.261719 236.136719 373.054688 C 236.378906 372.84375 236.59375 372.613281 236.78125 372.351562 C 236.96875 372.09375 237.125 371.816406 237.246094 371.519531 C 237.367188 371.226562 237.453125 370.917969 237.503906 370.601562 C 237.554688 370.289062 237.566406 369.96875 237.539062 369.652344 C 237.515625 369.332031 237.453125 369.019531 237.355469 368.714844 C 237.355469 368.472656 233.300781 355.664062 237.355469 332.925781 C 238.085938 333.125 238.816406 333.121094 239.546875 332.910156 C 240.273438 332.699219 240.894531 332.3125 241.40625 331.75 L 250.648438 321.253906 C 252.148438 321.253906 253.605469 321.578125 255.066406 321.699219 L 262.484375 333.859375 C 262.851562 334.46875 263.347656 334.945312 263.96875 335.292969 C 264.589844 335.636719 265.257812 335.808594 265.96875 335.804688 C 266.359375 335.863281 266.753906 335.863281 267.144531 335.804688 L 291.464844 328.589844 C 291.898438 328.464844 292.300781 328.269531 292.667969 328.007812 C 293.039062 327.75 293.355469 327.433594 293.621094 327.066406 C 293.886719 326.699219 294.082031 326.300781 294.214844 325.867188 C 294.34375 325.433594 294.398438 324.988281 294.382812 324.539062 L 293.8125 310.1875 C 294.988281 309.296875 296.164062 308.363281 297.257812 307.390625 L 311.203125 310.835938 C 311.640625 310.945312 312.082031 310.976562 312.53125 310.9375 C 312.980469 310.898438 313.40625 310.785156 313.820312 310.601562 C 314.230469 310.417969 314.601562 310.171875 314.929688 309.867188 C 315.257812 309.558594 315.53125 309.207031 315.742188 308.8125 L 327.902344 286.640625 C 328.117188 286.246094 328.261719 285.824219 328.335938 285.382812 C 328.410156 284.9375 328.410156 284.492188 328.335938 284.050781 C 328.261719 283.605469 328.121094 283.183594 327.90625 282.789062 C 327.691406 282.394531 327.421875 282.042969 327.089844 281.734375 L 316.550781 271.96875 C 316.550781 270.507812 316.917969 269.050781 317 267.589844 L 329.15625 260.132812 C 329.539062 259.886719 329.871094 259.582031 330.148438 259.222656 C 330.429688 258.867188 330.640625 258.472656 330.789062 258.042969 C 330.9375 257.613281 331.007812 257.167969 331.007812 256.714844 C 331.003906 256.261719 330.929688 255.820312 330.777344 255.390625 L 323.523438 231.070312 C 323.394531 230.640625 323.195312 230.242188 322.933594 229.878906 C 322.671875 229.511719 322.355469 229.199219 321.988281 228.9375 C 321.625 228.679688 321.222656 228.484375 320.792969 228.355469 C 320.359375 228.230469 319.921875 228.175781 319.46875 228.195312 L 305.121094 228.71875 C 304.230469 227.546875 303.296875 226.410156 302.324219 225.277344 L 305.730469 211.332031 C 305.835938 210.902344 305.867188 210.464844 305.828125 210.019531 C 305.785156 209.578125 305.675781 209.152344 305.496094 208.746094 C 305.316406 208.339844 305.078125 207.972656 304.777344 207.644531 C 304.476562 207.320312 304.132812 207.046875 303.746094 206.832031 L 297.136719 203.265625 C 300.914062 190.703125 303.113281 177.867188 303.746094 164.761719 L 308.082031 164.761719 C 308.542969 164.777344 308.992188 164.714844 309.429688 164.574219 C 309.871094 164.4375 310.273438 164.230469 310.640625 163.953125 C 311.007812 163.675781 311.320312 163.347656 311.578125 162.964844 C 311.835938 162.582031 312.019531 162.167969 312.132812 161.722656 L 316.390625 145.507812 C 318.199219 144.871094 319.96875 144.140625 321.699219 143.320312 L 336.332031 151.914062 C 336.71875 152.136719 337.132812 152.292969 337.570312 152.378906 C 338.007812 152.46875 338.449219 152.484375 338.894531 152.425781 C 339.335938 152.367188 339.761719 152.238281 340.160156 152.039062 C 340.5625 151.839844 340.921875 151.582031 341.234375 151.265625 L 361.703125 130.753906 C 362.019531 130.4375 362.273438 130.078125 362.46875 129.675781 C 362.664062 129.273438 362.789062 128.851562 362.84375 128.40625 C 362.898438 127.964844 362.878906 127.523438 362.789062 127.085938 C 362.699219 126.648438 362.539062 126.238281 362.3125 125.851562 L 353.71875 111.21875 C 354.539062 109.488281 355.269531 107.71875 355.910156 105.910156 L 372.121094 101.855469 C 372.566406 101.742188 372.980469 101.554688 373.363281 101.300781 C 373.746094 101.042969 374.074219 100.730469 374.351562 100.363281 C 374.628906 99.996094 374.835938 99.589844 374.976562 99.152344 C 375.113281 98.714844 375.175781 98.265625 375.160156 97.804688 L 375.160156 68.621094 C 375.191406 68.167969 375.144531 67.722656 375.023438 67.28125 C 374.90625 66.84375 374.714844 66.4375 374.457031 66.0625 C 374.199219 65.6875 373.890625 65.363281 373.523438 65.09375 C 373.15625 64.824219 372.757812 64.621094 372.324219 64.488281 Z M 228.234375 365.839844 L 109.800781 365.839844 L 110.894531 306.339844 C 110.914062 306.003906 110.890625 305.675781 110.828125 305.347656 C 110.765625 305.019531 110.664062 304.703125 110.523438 304.402344 C 110.382812 304.101562 110.207031 303.820312 110 303.558594 C 109.789062 303.300781 109.550781 303.070312 109.285156 302.871094 C 109.015625 302.667969 108.730469 302.503906 108.421875 302.375 C 108.117188 302.246094 107.796875 302.15625 107.46875 302.105469 C 107.136719 302.050781 106.808594 302.042969 106.476562 302.074219 C 106.140625 302.105469 105.820312 302.175781 105.503906 302.285156 C 86.453125 309.054688 53.625 315.5 46.691406 303.988281 C 37.980469 289.597656 38.828125 240.757812 39.882812 223.167969 C 39.898438 222.707031 39.835938 222.257812 39.699219 221.820312 C 39.558594 221.378906 39.351562 220.976562 39.074219 220.609375 C 38.796875 220.238281 38.46875 219.925781 38.085938 219.671875 C 37.703125 219.414062 37.289062 219.230469 36.84375 219.113281 C 27.359375 216.722656 12.523438 210.765625 10.578125 205.617188 C 9.726562 200.265625 28.332031 175.257812 46.246094 155.277344 C 46.8125 154.621094 47.152344 153.867188 47.261719 153.007812 C 47.261719 152.398438 54.027344 92.210938 81.792969 64.648438 C 115.3125 31.128906 158.804688 21.5625 215.304688 35.464844 C 218.253906 36.210938 221.160156 37.101562 224.019531 38.140625 C 224.011719 38.890625 224.1875 39.59375 224.546875 40.25 L 233.136719 54.878906 C 232.316406 56.613281 231.589844 58.382812 230.949219 60.191406 L 214.738281 64.242188 C 214.292969 64.359375 213.875 64.542969 213.492188 64.800781 C 213.113281 65.054688 212.78125 65.367188 212.503906 65.738281 C 212.230469 66.105469 212.023438 66.507812 211.882812 66.949219 C 211.746094 67.386719 211.683594 67.835938 211.695312 68.296875 L 211.695312 97.480469 C 211.683594 97.941406 211.746094 98.390625 211.882812 98.828125 C 212.023438 99.265625 212.230469 99.671875 212.503906 100.039062 C 212.78125 100.40625 213.113281 100.71875 213.492188 100.976562 C 213.875 101.230469 214.292969 101.417969 214.738281 101.53125 L 230.949219 105.585938 C 231.597656 107.410156 232.328125 109.152344 233.136719 110.894531 L 224.546875 125.527344 C 224.292969 125.941406 224.117188 126.386719 224.023438 126.863281 C 223.929688 127.339844 223.921875 127.820312 224 128.300781 C 224.078125 128.78125 224.234375 129.230469 224.476562 129.652344 C 224.71875 130.074219 225.023438 130.445312 225.398438 130.753906 L 245.664062 151.222656 C 245.976562 151.542969 246.335938 151.800781 246.738281 151.996094 C 247.136719 152.195312 247.5625 152.324219 248.003906 152.382812 C 248.449219 152.441406 248.890625 152.425781 249.328125 152.339844 C 249.765625 152.253906 250.179688 152.097656 250.566406 151.871094 L 265.199219 143.28125 C 266.941406 144.089844 268.683594 144.820312 270.507812 145.46875 L 274.5625 161.679688 C 274.675781 162.128906 274.863281 162.542969 275.117188 162.925781 C 275.375 163.308594 275.6875 163.636719 276.054688 163.914062 C 276.421875 164.1875 276.828125 164.394531 277.265625 164.535156 C 277.703125 164.671875 278.15625 164.734375 278.613281 164.722656 L 295.355469 164.722656 C 294.855469 176.582031 293.003906 188.226562 289.800781 199.660156 L 281.695312 195.160156 C 281.300781 194.953125 280.886719 194.8125 280.445312 194.738281 C 280.003906 194.667969 279.566406 194.667969 279.125 194.742188 C 278.6875 194.8125 278.269531 194.957031 277.878906 195.167969 C 277.484375 195.378906 277.136719 195.644531 276.832031 195.972656 L 267.0625 206.507812 C 265.605469 206.507812 264.105469 206.144531 262.644531 206.0625 L 255.226562 193.902344 C 254.996094 193.515625 254.703125 193.179688 254.359375 192.886719 C 254.011719 192.597656 253.625 192.371094 253.203125 192.210938 C 252.78125 192.046875 252.34375 191.960938 251.894531 191.945312 C 251.441406 191.929688 251 191.988281 250.566406 192.121094 L 226.449219 199.335938 C 226.015625 199.460938 225.613281 199.65625 225.246094 199.917969 C 224.875 200.175781 224.558594 200.492188 224.292969 200.859375 C 224.027344 201.226562 223.832031 201.625 223.699219 202.058594 C 223.570312 202.492188 223.515625 202.9375 223.53125 203.386719 L 224.101562 217.738281 C 222.902344 218.609375 221.753906 219.542969 220.65625 220.535156 L 206.710938 217.089844 C 206.273438 216.980469 205.832031 216.949219 205.382812 216.988281 C 204.933594 217.027344 204.503906 217.140625 204.09375 217.324219 C 203.683594 217.507812 203.3125 217.753906 202.984375 218.058594 C 202.65625 218.367188 202.382812 218.71875 202.171875 219.113281 L 190.011719 241 C 189.796875 241.398438 189.652344 241.816406 189.578125 242.261719 C 189.503906 242.703125 189.503906 243.148438 189.578125 243.59375 C 189.652344 244.035156 189.792969 244.457031 190.007812 244.851562 C 190.222656 245.25 190.492188 245.601562 190.824219 245.90625 L 201.363281 255.675781 C 201.363281 257.132812 200.996094 258.59375 200.914062 260.050781 L 188.757812 267.507812 C 188.375 267.742188 188.039062 268.03125 187.75 268.375 C 187.460938 268.71875 187.238281 269.097656 187.078125 269.515625 C 186.914062 269.933594 186.824219 270.367188 186.808594 270.8125 C 186.789062 271.261719 186.84375 271.699219 186.972656 272.128906 L 194.1875 296.449219 C 194.316406 296.878906 194.515625 297.277344 194.777344 297.644531 C 195.039062 298.007812 195.355469 298.320312 195.722656 298.582031 C 196.089844 298.84375 196.488281 299.035156 196.917969 299.164062 C 197.351562 299.292969 197.789062 299.347656 198.242188 299.328125 L 212.628906 298.800781 C 213.480469 299.976562 214.414062 301.109375 215.386719 302.203125 L 211.980469 316.148438 C 211.875 316.585938 211.839844 317.027344 211.878906 317.476562 C 211.921875 317.921875 212.03125 318.351562 212.214844 318.765625 C 212.398438 319.175781 212.644531 319.546875 212.953125 319.875 C 213.257812 320.203125 213.609375 320.476562 214.007812 320.6875 L 229.449219 328.875 C 226.824219 341.121094 226.417969 353.445312 228.234375 365.839844 Z M 299.691406 235.285156 C 300.082031 235.863281 300.585938 236.308594 301.203125 236.628906 C 301.824219 236.945312 302.480469 237.09375 303.175781 237.070312 L 316.59375 236.542969 L 322.023438 254.703125 L 310.511719 261.632812 C 309.917969 261.996094 309.445312 262.476562 309.101562 263.082031 C 308.753906 263.6875 308.578125 264.339844 308.566406 265.035156 C 308.523438 267.582031 308.28125 270.109375 307.839844 272.617188 C 307.714844 273.292969 307.757812 273.960938 307.976562 274.617188 C 308.191406 275.269531 308.550781 275.832031 309.054688 276.304688 L 318.863281 285.425781 L 309.90625 302.082031 L 296.894531 298.878906 C 296.214844 298.707031 295.535156 298.710938 294.859375 298.894531 C 294.179688 299.074219 293.589844 299.40625 293.085938 299.894531 C 291.265625 301.671875 289.304688 303.277344 287.207031 304.71875 C 286.636719 305.113281 286.199219 305.617188 285.890625 306.238281 C 285.578125 306.855469 285.4375 307.511719 285.464844 308.203125 L 285.949219 321.578125 L 267.792969 327.007812 L 260.863281 315.539062 C 260.503906 314.949219 260.027344 314.484375 259.429688 314.136719 C 258.832031 313.792969 258.1875 313.609375 257.496094 313.59375 C 254.949219 313.539062 252.425781 313.28125 249.917969 312.824219 L 249.1875 312.824219 C 248.621094 312.820312 248.074219 312.929688 247.550781 313.15625 C 247.03125 313.382812 246.578125 313.703125 246.191406 314.121094 L 237.070312 323.929688 L 220.453125 314.972656 L 223.613281 301.960938 C 223.785156 301.292969 223.78125 300.621094 223.609375 299.953125 C 223.4375 299.28125 223.113281 298.695312 222.640625 298.191406 C 220.875 296.347656 219.265625 294.375 217.816406 292.273438 C 217.421875 291.707031 216.917969 291.265625 216.296875 290.957031 C 215.679688 290.648438 215.023438 290.503906 214.332031 290.53125 L 201.078125 290.9375 L 195.648438 272.820312 L 207.117188 265.847656 C 207.707031 265.488281 208.175781 265.011719 208.519531 264.414062 C 208.863281 263.816406 209.046875 263.171875 209.0625 262.484375 C 209.132812 259.9375 209.40625 257.410156 209.875 254.902344 C 209.992188 254.222656 209.941406 253.554688 209.71875 252.898438 C 209.492188 252.242188 209.128906 251.683594 208.617188 251.214844 L 198.644531 242.097656 L 207.644531 225.4375 L 220.65625 228.640625 C 221.328125 228.804688 222 228.796875 222.667969 228.617188 C 223.339844 228.4375 223.921875 228.105469 224.425781 227.625 C 226.246094 225.851562 228.203125 224.242188 230.300781 222.804688 C 230.878906 222.414062 231.324219 221.910156 231.640625 221.289062 C 231.957031 220.671875 232.105469 220.011719 232.085938 219.316406 L 231.558594 205.941406 L 249.714844 200.511719 L 256.648438 211.820312 C 257 212.417969 257.476562 212.890625 258.074219 213.242188 C 258.671875 213.597656 259.316406 213.785156 260.011719 213.804688 C 262.558594 213.839844 265.085938 214.097656 267.589844 214.574219 C 268.277344 214.703125 268.953125 214.652344 269.617188 214.429688 C 270.28125 214.207031 270.847656 213.835938 271.320312 213.320312 L 280.4375 203.710938 L 297.097656 212.710938 L 293.894531 225.722656 C 293.730469 226.394531 293.738281 227.066406 293.917969 227.734375 C 294.097656 228.40625 294.429688 228.992188 294.910156 229.492188 C 296.648438 231.304688 298.242188 233.234375 299.691406 235.285156 Z M 367.257812 94.277344 L 351.773438 98.332031 C 351.097656 98.5 350.5 98.820312 349.988281 99.296875 C 349.476562 99.773438 349.113281 100.339844 348.898438 101.003906 C 347.988281 103.800781 346.851562 106.503906 345.492188 109.113281 C 345.128906 109.738281 344.949219 110.414062 344.949219 111.136719 C 344.949219 111.863281 345.128906 112.539062 345.492188 113.164062 L 353.597656 126.988281 L 337.386719 143.199219 L 323.5625 135.09375 C 322.9375 134.730469 322.261719 134.550781 321.539062 134.550781 C 320.8125 134.550781 320.136719 134.730469 319.511719 135.09375 C 316.902344 136.453125 314.203125 137.589844 311.40625 138.496094 C 310.746094 138.710938 310.179688 139.070312 309.703125 139.574219 C 309.226562 140.078125 308.902344 140.664062 308.730469 141.335938 L 304.675781 156.859375 L 282.140625 156.859375 L 278.085938 141.292969 C 277.914062 140.625 277.589844 140.035156 277.113281 139.53125 C 276.640625 139.027344 276.070312 138.671875 275.414062 138.457031 C 272.617188 137.546875 269.914062 136.414062 267.304688 135.050781 C 266.679688 134.691406 266.003906 134.507812 265.28125 134.507812 C 264.554688 134.507812 263.878906 134.691406 263.253906 135.050781 L 249.433594 143.160156 L 233.21875 126.945312 L 241.324219 113.125 C 241.6875 112.496094 241.867188 111.820312 241.867188 111.097656 C 241.867188 110.375 241.6875 109.699219 241.324219 109.070312 C 239.964844 106.464844 238.828125 103.761719 237.921875 100.964844 C 237.707031 100.304688 237.347656 99.738281 236.84375 99.265625 C 236.339844 98.789062 235.753906 98.464844 235.082031 98.289062 L 219.558594 94.238281 L 219.558594 71.539062 L 235.082031 67.484375 C 235.753906 67.3125 236.339844 66.988281 236.84375 66.511719 C 237.347656 66.035156 237.707031 65.46875 237.921875 64.8125 C 238.828125 62.015625 239.964844 59.3125 241.324219 56.703125 C 241.6875 56.078125 241.867188 55.402344 241.867188 54.679688 C 241.867188 53.953125 241.6875 53.277344 241.324219 52.652344 L 233.21875 38.832031 L 249.433594 22.617188 L 263.253906 30.722656 C 263.878906 31.085938 264.554688 31.265625 265.28125 31.265625 C 266.003906 31.265625 266.679688 31.085938 267.304688 30.722656 C 269.914062 29.363281 272.617188 28.226562 275.414062 27.320312 C 276.050781 27.121094 276.609375 26.785156 277.082031 26.3125 C 277.554688 25.839844 277.890625 25.285156 278.085938 24.644531 L 282.140625 9.160156 L 305.042969 9.160156 L 309.09375 24.644531 C 309.269531 25.3125 309.59375 25.902344 310.070312 26.40625 C 310.542969 26.910156 311.109375 27.269531 311.769531 27.480469 C 314.5625 28.414062 317.265625 29.5625 319.875 30.925781 C 320.503906 31.289062 321.179688 31.46875 321.902344 31.46875 C 322.625 31.46875 323.300781 31.289062 323.929688 30.925781 L 337.75 22.820312 L 353.964844 39.03125 L 345.855469 52.855469 C 345.496094 53.480469 345.3125 54.15625 345.3125 54.878906 C 345.3125 55.605469 345.496094 56.28125 345.855469 56.90625 C 347.222656 59.511719 348.359375 62.214844 349.261719 65.011719 C 349.476562 65.675781 349.84375 66.246094 350.355469 66.722656 C 350.867188 67.199219 351.460938 67.519531 352.140625 67.6875 L 367.621094 71.742188 Z M 367.257812 94.277344 " fill-opacity="1" fill-rule="nonzero"/></g><path fill="#feca64" d="M 293.449219 47.382812 C 292.28125 47.382812 291.117188 47.4375 289.957031 47.550781 C 288.792969 47.664062 287.640625 47.832031 286.496094 48.058594 C 285.347656 48.285156 284.21875 48.566406 283.101562 48.90625 C 281.984375 49.242188 280.886719 49.636719 279.804688 50.082031 C 278.726562 50.527344 277.671875 51.023438 276.640625 51.574219 C 275.613281 52.125 274.613281 52.722656 273.640625 53.371094 C 272.667969 54.015625 271.730469 54.710938 270.828125 55.449219 C 269.925781 56.191406 269.0625 56.972656 268.234375 57.796875 C 267.410156 58.621094 266.625 59.488281 265.882812 60.386719 C 265.144531 61.289062 264.449219 62.226562 263.800781 63.195312 C 263.148438 64.167969 262.550781 65.167969 262 66.195312 C 261.449219 67.226562 260.949219 68.277344 260.5 69.355469 C 260.054688 70.433594 259.660156 71.53125 259.320312 72.648438 C 258.980469 73.765625 258.699219 74.898438 258.46875 76.042969 C 258.242188 77.1875 258.070312 78.339844 257.953125 79.503906 C 257.839844 80.664062 257.78125 81.828125 257.78125 82.996094 C 257.78125 84.164062 257.835938 85.328125 257.953125 86.488281 C 258.066406 87.652344 258.238281 88.804688 258.464844 89.949219 C 258.691406 91.09375 258.972656 92.226562 259.3125 93.34375 C 259.652344 94.460938 260.042969 95.558594 260.492188 96.636719 C 260.9375 97.714844 261.4375 98.769531 261.984375 99.800781 C 262.535156 100.828125 263.136719 101.828125 263.785156 102.800781 C 264.433594 103.769531 265.125 104.707031 265.867188 105.609375 C 266.609375 106.511719 267.390625 107.375 268.214844 108.203125 C 269.042969 109.027344 269.90625 109.808594 270.808594 110.550781 C 271.710938 111.292969 272.648438 111.984375 273.617188 112.632812 C 274.589844 113.28125 275.589844 113.882812 276.617188 114.433594 C 277.648438 114.984375 278.703125 115.480469 279.78125 115.925781 C 280.859375 116.375 281.957031 116.765625 283.074219 117.105469 C 284.191406 117.445312 285.324219 117.726562 286.46875 117.953125 C 287.613281 118.179688 288.765625 118.351562 289.929688 118.464844 C 291.089844 118.582031 292.253906 118.636719 293.421875 118.636719 C 294.589844 118.636719 295.753906 118.578125 296.914062 118.464844 C 298.078125 118.347656 299.230469 118.175781 300.375 117.949219 C 301.519531 117.71875 302.652344 117.4375 303.769531 117.097656 C 304.886719 116.757812 305.984375 116.363281 307.0625 115.917969 C 308.140625 115.46875 309.195312 114.96875 310.222656 114.417969 C 311.25 113.867188 312.25 113.269531 313.222656 112.621094 C 314.191406 111.96875 315.128906 111.273438 316.03125 110.535156 C 316.933594 109.792969 317.796875 109.007812 318.621094 108.183594 C 319.445312 107.355469 320.226562 106.492188 320.96875 105.589844 C 321.707031 104.6875 322.402344 103.75 323.046875 102.777344 C 323.695312 101.804688 324.296875 100.804688 324.84375 99.777344 C 325.394531 98.746094 325.890625 97.691406 326.335938 96.613281 C 326.78125 95.535156 327.175781 94.433594 327.511719 93.316406 C 327.851562 92.199219 328.132812 91.070312 328.359375 89.921875 C 328.585938 88.777344 328.753906 87.625 328.867188 86.464844 C 328.980469 85.300781 329.039062 84.136719 329.035156 82.96875 C 329.035156 81.804688 328.976562 80.640625 328.859375 79.480469 C 328.746094 78.324219 328.574219 77.171875 328.34375 76.027344 C 328.117188 74.886719 327.832031 73.757812 327.496094 72.644531 C 327.15625 71.527344 326.761719 70.433594 326.316406 69.355469 C 325.871094 68.28125 325.371094 67.230469 324.820312 66.203125 C 324.273438 65.175781 323.671875 64.175781 323.027344 63.207031 C 322.378906 62.238281 321.683594 61.304688 320.945312 60.402344 C 320.207031 59.503906 319.425781 58.640625 318.601562 57.816406 C 317.777344 56.992188 316.914062 56.210938 316.015625 55.472656 C 315.113281 54.734375 314.179688 54.039062 313.210938 53.390625 C 312.242188 52.746094 311.242188 52.144531 310.214844 51.597656 C 309.1875 51.046875 308.136719 50.546875 307.0625 50.101562 C 305.984375 49.65625 304.890625 49.261719 303.773438 48.921875 C 302.660156 48.585938 301.53125 48.300781 300.390625 48.074219 C 299.246094 47.84375 298.09375 47.671875 296.9375 47.558594 C 295.777344 47.441406 294.613281 47.382812 293.449219 47.382812 Z M 293.449219 110.488281 C 292.546875 110.492188 291.648438 110.449219 290.75 110.363281 C 289.851562 110.273438 288.960938 110.144531 288.078125 109.96875 C 287.191406 109.792969 286.320312 109.578125 285.457031 109.316406 C 284.59375 109.054688 283.746094 108.753906 282.910156 108.410156 C 282.078125 108.066406 281.261719 107.679688 280.46875 107.257812 C 279.671875 106.832031 278.898438 106.371094 278.148438 105.871094 C 277.398438 105.371094 276.675781 104.835938 275.976562 104.265625 C 275.277344 103.695312 274.609375 103.089844 273.972656 102.453125 C 273.335938 101.816406 272.726562 101.148438 272.15625 100.453125 C 271.582031 99.757812 271.046875 99.035156 270.542969 98.285156 C 270.042969 97.535156 269.578125 96.765625 269.152344 95.96875 C 268.726562 95.175781 268.339844 94.363281 267.996094 93.527344 C 267.648438 92.695312 267.34375 91.847656 267.082031 90.984375 C 266.820312 90.125 266.597656 89.25 266.421875 88.367188 C 266.246094 87.480469 266.113281 86.589844 266.023438 85.695312 C 265.933594 84.796875 265.890625 83.898438 265.886719 82.996094 C 265.886719 82.09375 265.929688 81.195312 266.019531 80.296875 C 266.105469 79.398438 266.238281 78.507812 266.410156 77.625 C 266.585938 76.742188 266.804688 75.867188 267.066406 75.003906 C 267.328125 74.140625 267.628906 73.292969 267.972656 72.460938 C 268.316406 71.625 268.703125 70.8125 269.125 70.015625 C 269.550781 69.21875 270.011719 68.449219 270.515625 67.699219 C 271.015625 66.949219 271.550781 66.222656 272.121094 65.527344 C 272.691406 64.828125 273.296875 64.160156 273.933594 63.523438 C 274.570312 62.886719 275.238281 62.28125 275.933594 61.707031 C 276.632812 61.136719 277.355469 60.597656 278.101562 60.097656 C 278.851562 59.59375 279.625 59.132812 280.417969 58.707031 C 281.214844 58.28125 282.027344 57.894531 282.863281 57.550781 C 283.695312 57.203125 284.542969 56.898438 285.40625 56.636719 C 286.265625 56.375 287.140625 56.15625 288.023438 55.980469 C 288.910156 55.804688 289.800781 55.671875 290.695312 55.582031 C 291.59375 55.492188 292.492188 55.449219 293.394531 55.449219 C 294.296875 55.449219 295.195312 55.492188 296.09375 55.578125 C 296.992188 55.667969 297.882812 55.800781 298.765625 55.972656 C 299.652344 56.148438 300.523438 56.367188 301.386719 56.628906 C 302.25 56.890625 303.097656 57.195312 303.929688 57.539062 C 304.765625 57.882812 305.578125 58.269531 306.375 58.695312 C 307.167969 59.117188 307.941406 59.582031 308.691406 60.082031 C 309.441406 60.582031 310.164062 61.117188 310.863281 61.691406 C 311.558594 62.261719 312.226562 62.867188 312.863281 63.503906 C 313.5 64.140625 314.105469 64.808594 314.679688 65.503906 C 315.25 66.203125 315.789062 66.925781 316.289062 67.675781 C 316.789062 68.425781 317.253906 69.195312 317.679688 69.992188 C 318.101562 70.789062 318.488281 71.601562 318.832031 72.433594 C 319.179688 73.265625 319.480469 74.113281 319.742188 74.976562 C 320.003906 75.839844 320.226562 76.714844 320.402344 77.597656 C 320.578125 78.484375 320.707031 79.375 320.796875 80.269531 C 320.886719 81.167969 320.929688 82.066406 320.929688 82.96875 C 320.929688 83.871094 320.886719 84.769531 320.796875 85.664062 C 320.710938 86.558594 320.578125 87.449219 320.402344 88.332031 C 320.226562 89.214844 320.007812 90.089844 319.746094 90.949219 C 319.484375 91.8125 319.183594 92.660156 318.839844 93.492188 C 318.496094 94.324219 318.109375 95.136719 317.6875 95.929688 C 317.261719 96.726562 316.800781 97.496094 316.300781 98.246094 C 315.800781 98.996094 315.265625 99.71875 314.695312 100.414062 C 314.125 101.109375 313.519531 101.777344 312.882812 102.414062 C 312.246094 103.050781 311.582031 103.65625 310.886719 104.230469 C 310.191406 104.800781 309.46875 105.335938 308.71875 105.835938 C 307.972656 106.339844 307.199219 106.800781 306.40625 107.226562 C 305.613281 107.652344 304.800781 108.039062 303.96875 108.382812 C 303.136719 108.730469 302.289062 109.03125 301.429688 109.296875 C 300.566406 109.558594 299.695312 109.777344 298.8125 109.953125 C 297.929688 110.132812 297.039062 110.265625 296.144531 110.355469 C 295.25 110.441406 294.351562 110.488281 293.449219 110.488281 Z M 293.449219 110.488281 " fill-opacity="1" fill-rule="nonzero"/><path fill="#feca64" d="M 197.59375 182.917969 C 198.027344 183.027344 198.46875 183.066406 198.914062 183.027344 C 199.359375 182.988281 199.789062 182.882812 200.199219 182.703125 C 200.613281 182.523438 200.980469 182.28125 201.3125 181.976562 C 201.644531 181.675781 201.917969 181.328125 202.132812 180.933594 L 212.953125 160.667969 C 213.167969 160.273438 213.3125 159.851562 213.386719 159.410156 C 213.460938 158.964844 213.460938 158.519531 213.386719 158.078125 C 213.316406 157.632812 213.171875 157.214844 212.957031 156.816406 C 212.746094 156.421875 212.472656 156.070312 212.144531 155.765625 L 202.78125 147.089844 C 202.78125 145.875 203.0625 144.699219 203.144531 143.484375 L 214.089844 136.835938 C 214.472656 136.601562 214.808594 136.316406 215.09375 135.972656 C 215.382812 135.628906 215.605469 135.246094 215.769531 134.828125 C 215.929688 134.410156 216.019531 133.976562 216.035156 133.53125 C 216.054688 133.082031 216 132.644531 215.871094 132.214844 L 209.183594 110.488281 C 209.054688 110.058594 208.859375 109.660156 208.59375 109.296875 C 208.332031 108.929688 208.015625 108.617188 207.652344 108.355469 C 207.285156 108.097656 206.882812 107.902344 206.453125 107.773438 C 206.019531 107.648438 205.582031 107.59375 205.132812 107.613281 L 192.363281 108.058594 C 191.632812 107.085938 190.863281 106.152344 190.09375 105.261719 L 193.132812 92.859375 C 193.242188 92.421875 193.273438 91.980469 193.234375 91.53125 C 193.195312 91.082031 193.082031 90.652344 192.898438 90.242188 C 192.714844 89.832031 192.46875 89.460938 192.164062 89.132812 C 191.855469 88.800781 191.503906 88.53125 191.105469 88.320312 L 171.042969 77.496094 C 170.648438 77.289062 170.234375 77.148438 169.792969 77.074219 C 169.355469 77.003906 168.914062 77.003906 168.472656 77.078125 C 168.035156 77.152344 167.617188 77.292969 167.226562 77.503906 C 166.832031 77.714844 166.484375 77.980469 166.179688 78.308594 L 157.628906 87.792969 C 156.453125 87.792969 155.238281 87.507812 154.019531 87.425781 L 147.414062 76.484375 C 147.179688 76.101562 146.894531 75.765625 146.550781 75.476562 C 146.207031 75.191406 145.824219 74.964844 145.40625 74.804688 C 144.988281 74.644531 144.558594 74.554688 144.109375 74.535156 C 143.660156 74.519531 143.222656 74.574219 142.792969 74.699219 L 120.945312 81.265625 C 120.515625 81.398438 120.117188 81.59375 119.753906 81.855469 C 119.386719 82.117188 119.074219 82.433594 118.8125 82.800781 C 118.554688 83.167969 118.359375 83.566406 118.230469 84 C 118.105469 84.429688 118.050781 84.871094 118.070312 85.320312 L 118.554688 98.085938 C 117.582031 98.816406 116.652344 99.585938 115.71875 100.398438 L 103.316406 97.316406 C 102.878906 97.210938 102.4375 97.175781 101.988281 97.21875 C 101.539062 97.257812 101.109375 97.371094 100.699219 97.554688 C 100.289062 97.734375 99.917969 97.980469 99.589844 98.289062 C 99.257812 98.59375 98.988281 98.945312 98.777344 99.34375 L 87.953125 119.40625 C 87.738281 119.800781 87.59375 120.222656 87.519531 120.667969 C 87.445312 121.109375 87.445312 121.554688 87.519531 121.996094 C 87.59375 122.441406 87.734375 122.863281 87.949219 123.257812 C 88.164062 123.65625 88.433594 124.003906 88.765625 124.3125 L 98.167969 132.984375 C 98.167969 134.199219 97.882812 135.375 97.804688 136.59375 L 86.859375 143.199219 C 86.476562 143.429688 86.140625 143.71875 85.855469 144.0625 C 85.566406 144.40625 85.339844 144.789062 85.179688 145.207031 C 85.019531 145.625 84.929688 146.054688 84.910156 146.503906 C 84.894531 146.953125 84.949219 147.390625 85.078125 147.820312 L 91.640625 169.625 C 91.773438 170.054688 91.96875 170.453125 92.230469 170.820312 C 92.496094 171.183594 92.808594 171.5 93.175781 171.757812 C 93.542969 172.019531 93.941406 172.214844 94.375 172.339844 C 94.804688 172.46875 95.246094 172.523438 95.695312 172.503906 L 108.464844 172.015625 C 109.191406 172.988281 109.921875 173.921875 110.734375 174.855469 L 107.855469 187.257812 C 107.746094 187.691406 107.710938 188.132812 107.746094 188.578125 C 107.785156 189.027344 107.894531 189.453125 108.074219 189.867188 C 108.253906 190.277344 108.496094 190.648438 108.796875 190.976562 C 109.101562 191.308594 109.449219 191.582031 109.839844 191.796875 L 129.90625 202.617188 C 130.300781 202.832031 130.71875 202.976562 131.164062 203.050781 C 131.609375 203.125 132.050781 203.125 132.496094 203.054688 C 132.9375 202.980469 133.359375 202.835938 133.753906 202.621094 C 134.152344 202.410156 134.503906 202.136719 134.808594 201.808594 L 143.523438 192.445312 C 144.699219 192.445312 145.914062 192.730469 147.089844 192.808594 L 153.535156 203.710938 C 153.902344 204.3125 154.390625 204.789062 155.003906 205.132812 C 155.617188 205.480469 156.273438 205.65625 156.980469 205.65625 C 157.371094 205.714844 157.761719 205.714844 158.15625 205.65625 L 179.960938 199.132812 C 180.394531 199.007812 180.796875 198.8125 181.167969 198.550781 C 181.535156 198.289062 181.855469 197.976562 182.117188 197.609375 C 182.382812 197.242188 182.582031 196.839844 182.710938 196.40625 C 182.839844 195.972656 182.898438 195.53125 182.878906 195.078125 L 182.394531 182.3125 C 183.367188 181.582031 184.296875 180.8125 185.1875 180 Z M 181.378906 172.503906 C 179.734375 174.089844 177.964844 175.523438 176.070312 176.800781 C 175.5 177.195312 175.0625 177.699219 174.75 178.320312 C 174.441406 178.9375 174.300781 179.59375 174.328125 180.285156 L 174.773438 192.121094 L 158.964844 196.820312 L 152.84375 186.730469 C 152.484375 186.132812 152 185.664062 151.394531 185.316406 C 150.789062 184.972656 150.136719 184.792969 149.441406 184.785156 C 147.164062 184.742188 144.910156 184.511719 142.671875 184.09375 L 141.941406 184.09375 C 141.375 184.089844 140.828125 184.203125 140.304688 184.429688 C 139.785156 184.652344 139.328125 184.976562 138.941406 185.390625 L 130.835938 194.066406 L 116.285156 186.242188 L 119.121094 174.734375 C 119.289062 174.058594 119.28125 173.386719 119.101562 172.71875 C 118.917969 172.046875 118.589844 171.464844 118.109375 170.964844 C 116.523438 169.332031 115.09375 167.574219 113.8125 165.695312 C 113.417969 165.125 112.914062 164.6875 112.292969 164.375 C 111.675781 164.066406 111.019531 163.925781 110.328125 163.949219 L 98.492188 164.355469 L 93.789062 148.550781 L 103.800781 142.347656 C 104.390625 141.988281 104.859375 141.511719 105.203125 140.914062 C 105.550781 140.316406 105.730469 139.671875 105.746094 138.984375 C 105.789062 136.707031 106.019531 134.453125 106.4375 132.214844 C 106.566406 131.53125 106.527344 130.855469 106.308594 130.195312 C 106.09375 129.53125 105.730469 128.960938 105.21875 128.484375 L 96.546875 120.378906 L 104.410156 105.828125 L 115.878906 108.667969 C 116.558594 108.824219 117.230469 108.8125 117.902344 108.625 C 118.570312 108.4375 119.152344 108.101562 119.648438 107.613281 C 121.300781 106.050781 123.054688 104.617188 124.917969 103.316406 C 125.496094 102.925781 125.941406 102.421875 126.257812 101.800781 C 126.578125 101.183594 126.722656 100.527344 126.703125 99.832031 L 126.257812 88.035156 L 142.0625 83.292969 L 148.386719 93.507812 C 148.746094 94.097656 149.222656 94.5625 149.820312 94.910156 C 150.417969 95.253906 151.0625 95.4375 151.75 95.453125 C 154.039062 95.496094 156.308594 95.726562 158.558594 96.140625 C 159.242188 96.261719 159.910156 96.210938 160.566406 95.984375 C 161.21875 95.761719 161.78125 95.394531 162.25 94.886719 L 170.355469 86.253906 L 184.863281 94.277344 L 182.070312 105.746094 C 181.902344 106.421875 181.910156 107.09375 182.089844 107.761719 C 182.273438 108.433594 182.601562 109.015625 183.082031 109.515625 C 184.574219 111.089844 185.9375 112.761719 187.175781 114.542969 C 187.570312 115.113281 188.074219 115.550781 188.695312 115.859375 C 189.3125 116.171875 189.96875 116.3125 190.660156 116.285156 L 202.457031 115.839844 L 207.199219 131.648438 L 197.023438 137.847656 C 196.421875 138.207031 195.941406 138.6875 195.589844 139.292969 C 195.238281 139.898438 195.054688 140.550781 195.039062 141.253906 C 195.015625 143.53125 194.785156 145.785156 194.347656 148.023438 C 194.222656 148.710938 194.269531 149.386719 194.496094 150.050781 C 194.71875 150.710938 195.089844 151.28125 195.605469 151.75 L 204.238281 159.859375 L 196.417969 174.410156 L 184.863281 171.488281 C 184.21875 171.355469 183.574219 171.375 182.9375 171.554688 C 182.300781 171.734375 181.742188 172.050781 181.257812 172.503906 Z M 181.378906 172.503906 " fill-opacity="1" fill-rule="nonzero"/><path fill="#feca64" d="M 177.976562 131.890625 C 177.703125 130.992188 177.390625 130.105469 177.03125 129.234375 C 176.675781 128.367188 176.273438 127.515625 175.832031 126.6875 C 175.390625 125.855469 174.910156 125.050781 174.390625 124.265625 C 173.871094 123.484375 173.3125 122.730469 172.71875 122 C 172.125 121.273438 171.496094 120.574219 170.832031 119.90625 C 170.171875 119.242188 169.476562 118.609375 168.75 118.011719 C 168.027344 117.410156 167.273438 116.851562 166.496094 116.324219 C 165.714844 115.800781 164.910156 115.316406 164.082031 114.871094 C 163.253906 114.425781 162.40625 114.019531 161.539062 113.65625 C 160.671875 113.296875 159.789062 112.976562 158.890625 112.699219 C 157.992188 112.425781 157.082031 112.191406 156.160156 112.007812 C 155.238281 111.820312 154.3125 111.679688 153.375 111.582031 C 152.441406 111.488281 151.503906 111.4375 150.5625 111.433594 C 149.621094 111.429688 148.683594 111.472656 147.75 111.5625 C 146.8125 111.652344 145.882812 111.785156 144.960938 111.964844 C 144.039062 112.144531 143.125 112.367188 142.226562 112.636719 C 141.410156 112.882812 140.609375 113.164062 139.820312 113.480469 C 139.03125 113.796875 138.253906 114.148438 137.496094 114.53125 C 136.738281 114.917969 136 115.335938 135.277344 115.785156 C 134.554688 116.238281 133.855469 116.71875 133.175781 117.234375 C 132.5 117.746094 131.84375 118.289062 131.214844 118.859375 C 130.585938 119.429688 129.980469 120.027344 129.402344 120.652344 C 128.828125 121.28125 128.277344 121.929688 127.757812 122.601562 C 127.238281 123.277344 126.75 123.972656 126.292969 124.6875 C 125.835938 125.40625 125.414062 126.144531 125.019531 126.898438 C 124.628906 127.652344 124.269531 128.421875 123.945312 129.210938 C 123.625 129.996094 123.335938 130.796875 123.082031 131.609375 C 122.832031 132.421875 122.617188 133.242188 122.4375 134.074219 C 122.257812 134.90625 122.117188 135.746094 122.011719 136.589844 C 121.90625 137.433594 121.839844 138.28125 121.808594 139.128906 C 121.78125 139.980469 121.789062 140.832031 121.835938 141.679688 C 121.882812 142.53125 121.964844 143.375 122.085938 144.21875 C 122.207031 145.058594 122.367188 145.894531 122.5625 146.722656 C 122.757812 147.550781 122.992188 148.367188 123.257812 149.175781 C 123.527344 149.980469 123.832031 150.777344 124.171875 151.554688 C 124.507812 152.335938 124.882812 153.101562 125.289062 153.847656 C 125.695312 154.59375 126.136719 155.320312 126.609375 156.03125 C 127.078125 156.738281 127.582031 157.421875 128.113281 158.085938 C 128.648438 158.75 129.207031 159.386719 129.796875 160 C 130.386719 160.613281 131 161.199219 131.644531 161.757812 C 132.285156 162.316406 132.949219 162.847656 133.636719 163.347656 C 134.328125 163.847656 135.035156 164.3125 135.765625 164.75 C 136.496094 165.1875 137.246094 165.589844 138.011719 165.960938 C 138.777344 166.332031 139.558594 166.664062 140.355469 166.964844 C 141.148438 167.265625 141.957031 167.53125 142.777344 167.757812 C 143.597656 167.988281 144.425781 168.179688 145.261719 168.335938 C 146.097656 168.488281 146.9375 168.609375 147.785156 168.6875 C 148.632812 168.769531 149.480469 168.808594 150.332031 168.816406 C 150.890625 168.816406 151.445312 168.800781 152.003906 168.769531 C 152.558594 168.738281 153.113281 168.691406 153.667969 168.628906 C 154.222656 168.566406 154.773438 168.484375 155.324219 168.390625 C 155.871094 168.292969 156.417969 168.183594 156.960938 168.054688 C 157.503906 167.929688 158.042969 167.785156 158.574219 167.625 C 159.109375 167.46875 159.640625 167.292969 160.164062 167.105469 C 160.6875 166.914062 161.207031 166.710938 161.71875 166.488281 C 162.230469 166.269531 162.734375 166.035156 163.234375 165.785156 C 163.730469 165.539062 164.222656 165.273438 164.707031 164.996094 C 165.191406 164.71875 165.664062 164.425781 166.128906 164.121094 C 166.597656 163.816406 167.054688 163.496094 167.5 163.164062 C 167.949219 162.832031 168.386719 162.488281 168.8125 162.128906 C 169.242188 161.773438 169.65625 161.402344 170.0625 161.019531 C 170.46875 160.640625 170.863281 160.246094 171.246094 159.839844 C 171.628906 159.4375 172 159.019531 172.359375 158.59375 C 172.71875 158.167969 173.066406 157.730469 173.398438 157.285156 C 173.730469 156.835938 174.050781 156.382812 174.359375 155.914062 C 174.664062 155.449219 174.957031 154.976562 175.238281 154.496094 C 175.515625 154.011719 175.78125 153.523438 176.03125 153.023438 C 176.285156 152.527344 176.519531 152.023438 176.742188 151.511719 C 176.960938 151 177.167969 150.480469 177.359375 149.957031 C 177.550781 149.433594 177.726562 148.90625 177.886719 148.371094 C 178.046875 147.835938 178.191406 147.300781 178.320312 146.757812 C 178.449219 146.214844 178.5625 145.667969 178.660156 145.121094 C 178.757812 144.570312 178.835938 144.019531 178.902344 143.46875 C 178.96875 142.914062 179.015625 142.359375 179.050781 141.800781 C 179.082031 141.246094 179.097656 140.6875 179.097656 140.132812 C 179.097656 139.574219 179.082031 139.015625 179.050781 138.460938 C 179.019531 137.90625 178.96875 137.347656 178.90625 136.796875 C 178.839844 136.242188 178.761719 135.691406 178.664062 135.140625 C 178.566406 134.59375 178.453125 134.046875 178.324219 133.503906 C 178.199219 132.960938 178.054688 132.425781 177.894531 131.890625 Z M 156.492188 159.859375 C 155.195312 160.238281 153.875 160.492188 152.527344 160.617188 C 151.179688 160.742188 149.835938 160.734375 148.488281 160.59375 C 147.144531 160.457031 145.828125 160.1875 144.535156 159.789062 C 143.242188 159.394531 142 158.875 140.808594 158.234375 C 139.917969 157.753906 139.066406 157.207031 138.253906 156.59375 C 137.445312 155.984375 136.683594 155.320312 135.972656 154.597656 C 135.261719 153.875 134.605469 153.105469 134.007812 152.285156 C 133.410156 151.46875 132.875 150.609375 132.402344 149.710938 C 131.933594 148.8125 131.53125 147.886719 131.195312 146.929688 C 130.859375 145.96875 130.597656 144.992188 130.410156 143.996094 C 130.21875 143 130.105469 141.996094 130.0625 140.984375 C 130.019531 139.96875 130.054688 138.960938 130.164062 137.953125 C 130.269531 136.941406 130.453125 135.949219 130.707031 134.964844 C 130.960938 133.984375 131.289062 133.027344 131.683594 132.09375 C 132.082031 131.160156 132.542969 130.261719 133.074219 129.398438 C 133.601562 128.53125 134.191406 127.710938 134.84375 126.933594 C 135.492188 126.15625 136.195312 125.429688 136.953125 124.753906 C 137.710938 124.082031 138.515625 123.46875 139.363281 122.910156 C 140.214844 122.355469 141.097656 121.867188 142.019531 121.441406 C 142.941406 121.019531 143.886719 120.664062 144.859375 120.378906 C 146.777344 119.816406 148.738281 119.53125 150.738281 119.527344 C 151.839844 119.527344 152.933594 119.613281 154.019531 119.789062 C 155.105469 119.964844 156.171875 120.222656 157.214844 120.570312 C 158.261719 120.914062 159.273438 121.339844 160.25 121.847656 C 161.226562 122.355469 162.15625 122.9375 163.039062 123.59375 C 163.921875 124.25 164.746094 124.972656 165.515625 125.761719 C 166.28125 126.550781 166.980469 127.394531 167.613281 128.296875 C 168.246094 129.199219 168.800781 130.144531 169.28125 131.132812 C 169.761719 132.125 170.160156 133.148438 170.476562 134.199219 C 170.667969 134.851562 170.824219 135.507812 170.953125 136.171875 C 171.078125 136.835938 171.171875 137.503906 171.234375 138.179688 C 171.292969 138.851562 171.320312 139.527344 171.316406 140.207031 C 171.308594 140.882812 171.269531 141.554688 171.199219 142.230469 C 171.125 142.902344 171.023438 143.570312 170.882812 144.230469 C 170.746094 144.894531 170.578125 145.546875 170.375 146.195312 C 170.171875 146.839844 169.941406 147.476562 169.675781 148.097656 C 169.414062 148.722656 169.117188 149.328125 168.792969 149.921875 C 168.472656 150.515625 168.117188 151.09375 167.738281 151.652344 C 167.359375 152.214844 166.953125 152.753906 166.519531 153.273438 C 166.085938 153.792969 165.625 154.289062 165.144531 154.761719 C 164.664062 155.238281 164.15625 155.6875 163.632812 156.113281 C 163.105469 156.539062 162.558594 156.9375 161.992188 157.308594 C 161.429688 157.679688 160.84375 158.023438 160.246094 158.335938 C 159.648438 158.652344 159.035156 158.933594 158.40625 159.1875 C 157.78125 159.441406 157.140625 159.667969 156.492188 159.859375 Z M 156.492188 159.859375 " fill-opacity="1" fill-rule="nonzero"/><path fill="#feca64" d="M 273.628906 236.136719 C 272.585938 235.574219 271.511719 235.070312 270.40625 234.625 C 269.304688 234.183594 268.179688 233.804688 267.035156 233.488281 C 265.890625 233.175781 264.730469 232.925781 263.554688 232.742188 C 262.382812 232.558594 261.203125 232.445312 260.015625 232.394531 C 258.828125 232.347656 257.640625 232.363281 256.457031 232.449219 C 255.269531 232.539062 254.09375 232.691406 252.925781 232.910156 C 251.757812 233.128906 250.609375 233.417969 249.472656 233.765625 C 248.339844 234.117188 247.226562 234.53125 246.136719 235.011719 C 245.050781 235.488281 243.992188 236.023438 242.964844 236.621094 C 241.9375 237.222656 240.949219 237.875 239.996094 238.585938 C 239.046875 239.296875 238.136719 240.058594 237.269531 240.871094 C 236.40625 241.683594 235.585938 242.546875 234.820312 243.453125 C 234.050781 244.359375 233.339844 245.304688 232.679688 246.292969 C 232.019531 247.28125 231.417969 248.304688 230.871094 249.359375 C 230.328125 250.417969 229.847656 251.5 229.425781 252.613281 C 229.003906 253.722656 228.648438 254.855469 228.359375 256.007812 C 228.066406 257.160156 227.839844 258.324219 227.679688 259.5 C 227.523438 260.679688 227.429688 261.859375 227.40625 263.050781 C 227.382812 264.238281 227.425781 265.421875 227.535156 266.605469 C 227.644531 267.789062 227.820312 268.960938 228.066406 270.125 C 228.308594 271.289062 228.617188 272.433594 228.992188 273.558594 C 229.363281 274.6875 229.800781 275.789062 230.300781 276.867188 C 230.800781 277.945312 231.359375 278.992188 231.976562 280.007812 C 232.597656 281.023438 233.269531 282 234 282.9375 C 234.730469 283.875 235.511719 284.769531 236.339844 285.617188 C 237.171875 286.464844 238.050781 287.265625 238.972656 288.015625 C 239.894531 288.761719 240.855469 289.457031 241.855469 290.097656 C 242.855469 290.738281 243.890625 291.320312 244.957031 291.839844 C 246.027344 292.363281 247.117188 292.824219 248.238281 293.222656 C 249.359375 293.621094 250.496094 293.953125 251.652344 294.222656 C 252.8125 294.488281 253.980469 294.691406 255.160156 294.828125 C 256.339844 294.960938 257.527344 295.03125 258.714844 295.03125 C 261.792969 295.023438 264.804688 294.578125 267.753906 293.691406 C 269.226562 293.25 270.660156 292.699219 272.050781 292.046875 C 273.441406 291.390625 274.78125 290.636719 276.0625 289.785156 C 277.34375 288.933594 278.554688 287.992188 279.699219 286.960938 C 280.839844 285.933594 281.902344 284.824219 282.882812 283.636719 C 283.859375 282.449219 284.746094 281.199219 285.542969 279.878906 C 286.335938 278.5625 287.03125 277.195312 287.625 275.773438 C 288.21875 274.355469 288.703125 272.898438 289.082031 271.410156 C 289.460938 269.917969 289.730469 268.40625 289.886719 266.875 C 290.042969 265.34375 290.085938 263.8125 290.015625 262.273438 C 289.945312 260.738281 289.765625 259.214844 289.46875 257.703125 C 289.175781 256.191406 288.773438 254.710938 288.261719 253.261719 C 287.75 251.808594 287.132812 250.40625 286.414062 249.042969 C 285.695312 247.683594 284.878906 246.382812 283.96875 245.144531 C 283.058594 243.902344 282.058594 242.738281 280.976562 241.644531 C 279.894531 240.550781 278.738281 239.542969 277.507812 238.621094 C 276.273438 237.699219 274.984375 236.871094 273.628906 236.136719 Z M 279.183594 274.722656 C 278.820312 275.394531 278.425781 276.042969 278.003906 276.671875 C 277.578125 277.300781 277.121094 277.910156 276.636719 278.496094 C 276.152344 279.082031 275.640625 279.640625 275.101562 280.175781 C 274.5625 280.710938 273.996094 281.21875 273.40625 281.699219 C 272.816406 282.179688 272.203125 282.628906 271.570312 283.046875 C 270.9375 283.46875 270.285156 283.855469 269.613281 284.210938 C 268.941406 284.566406 268.253906 284.886719 267.550781 285.175781 C 266.847656 285.464844 266.128906 285.71875 265.402344 285.933594 C 264.671875 286.152344 263.9375 286.335938 263.191406 286.480469 C 262.445312 286.625 261.691406 286.734375 260.9375 286.804688 C 260.179688 286.875 259.421875 286.910156 258.660156 286.90625 C 257.902344 286.90625 257.140625 286.863281 256.386719 286.789062 C 255.628906 286.710938 254.878906 286.597656 254.132812 286.445312 C 253.390625 286.292969 252.652344 286.105469 251.925781 285.882812 C 251.199219 285.660156 250.488281 285.402344 249.785156 285.109375 C 249.085938 284.816406 248.398438 284.488281 247.730469 284.128906 C 247.0625 283.765625 246.414062 283.371094 245.785156 282.949219 C 245.15625 282.523438 244.550781 282.070312 243.964844 281.582031 C 243.382812 281.097656 242.820312 280.585938 242.289062 280.046875 C 241.753906 279.507812 241.246094 278.945312 240.769531 278.355469 C 240.289062 277.765625 239.839844 277.15625 239.421875 276.523438 C 239.003906 275.890625 238.613281 275.238281 238.261719 274.566406 C 237.90625 273.898438 237.582031 273.210938 237.296875 272.507812 C 237.007812 271.804688 236.753906 271.089844 236.539062 270.363281 C 236.320312 269.636719 236.136719 268.902344 235.992188 268.15625 C 235.847656 267.410156 235.738281 266.660156 235.667969 265.90625 C 235.59375 265.148438 235.558594 264.390625 235.5625 263.632812 C 235.566406 262.875 235.605469 262.117188 235.679688 261.363281 C 235.757812 260.605469 235.871094 259.859375 236.019531 259.113281 C 236.171875 258.371094 236.355469 257.632812 236.578125 256.910156 C 236.800781 256.183594 237.058594 255.46875 237.351562 254.769531 C 237.640625 254.070312 237.96875 253.382812 238.328125 252.714844 C 238.6875 252.046875 239.078125 251.398438 239.503906 250.765625 C 239.925781 250.136719 240.382812 249.527344 240.867188 248.941406 C 241.351562 248.355469 241.859375 247.792969 242.398438 247.257812 C 242.9375 246.722656 243.503906 246.214844 244.09375 245.734375 C 244.679688 245.253906 245.292969 244.804688 245.925781 244.386719 C 246.558594 243.964844 247.210938 243.578125 247.882812 243.222656 C 248.554688 242.863281 249.242188 242.542969 249.945312 242.253906 C 250.648438 241.964844 251.363281 241.710938 252.089844 241.492188 C 252.820312 241.277344 253.554688 241.09375 254.300781 240.949219 C 255.046875 240.800781 255.796875 240.691406 256.554688 240.621094 C 257.3125 240.546875 258.070312 240.515625 258.828125 240.515625 C 259.589844 240.519531 260.347656 240.558594 261.101562 240.636719 C 261.859375 240.710938 262.609375 240.828125 263.355469 240.976562 C 264.101562 241.128906 264.835938 241.316406 265.5625 241.539062 C 266.289062 241.761719 267.003906 242.019531 267.703125 242.3125 C 268.40625 242.605469 269.089844 242.929688 269.757812 243.292969 C 270.425781 243.652344 271.078125 244.042969 271.707031 244.46875 C 272.339844 244.894531 272.945312 245.347656 273.53125 245.832031 C 274.117188 246.316406 274.679688 246.828125 275.214844 247.367188 C 275.75 247.90625 276.257812 248.46875 276.738281 249.058594 C 277.21875 249.648438 277.667969 250.257812 278.089844 250.890625 C 278.507812 251.523438 278.898438 252.175781 279.253906 252.847656 C 279.609375 253.519531 279.929688 254.207031 280.21875 254.910156 C 280.507812 255.613281 280.761719 256.328125 280.980469 257.054688 C 281.199219 257.785156 281.378906 258.519531 281.527344 259.265625 C 281.671875 260.011719 281.78125 260.765625 281.851562 261.519531 C 281.925781 262.277344 281.960938 263.035156 281.957031 263.792969 C 281.953125 264.554688 281.914062 265.3125 281.839844 266.070312 C 281.761719 266.824219 281.648438 267.574219 281.496094 268.320312 C 281.347656 269.066406 281.160156 269.800781 280.9375 270.527344 C 280.714844 271.253906 280.457031 271.96875 280.164062 272.667969 C 279.871094 273.371094 279.542969 274.054688 279.183594 274.722656 Z M 279.183594 274.722656 " fill-opacity="1" fill-rule="nonzero"/></svg>